<svg width="24" height="24" viewBox="0 0 24 24" fill="none" xmlns="http://www.w3.org/2000/svg">
<path d="M4.16667 21.5C3.57084 21.5 3.06059 21.2877 2.63592 20.863C2.21125 20.4383 1.99928 19.9285 2 19.3333V5.79167C2 5.52084 2.04514 5.27709 2.13542 5.06042C2.2257 4.84376 2.34306 4.63612 2.4875 4.43751L4.00417 2.59584C4.14861 2.39723 4.32917 2.24809 4.54584 2.14842C4.7625 2.04876 4.99722 1.99929 5.25 2.00001H18.25C18.5028 2.00001 18.7375 2.04948 18.9542 2.14842C19.1708 2.24737 19.3514 2.39651 19.4958 2.59584L21.0125 4.43751C21.1569 4.63612 21.2743 4.84376 21.3646 5.06042C21.4549 5.27709 21.5 5.52084 21.5 5.79167V19.3333C21.5 19.9292 21.2877 20.4394 20.863 20.8641C20.4383 21.2888 19.9284 21.5007 19.3333 21.5H4.16667ZM4.6 5.25001H18.9L17.9792 4.16667H5.52084L4.6 5.25001ZM4.16667 7.41667V19.3333H19.3333V7.41667H4.16667ZM11.75 18.25L16.0833 13.9167L14.5667 12.4L12.8333 14.1333V9.58334H10.6667V14.1333L8.93334 12.4L7.41667 13.9167L11.75 18.25Z" fill="#F8373F"/>
</svg>
