<svg width="24" height="24" viewBox="0 0 24 24" fill="none" xmlns="http://www.w3.org/2000/svg">
<path d="M4.41667 20.75C3.82084 20.75 3.31059 20.5377 2.88592 20.113C2.46125 19.6883 2.24928 19.1785 2.25 18.5833V5.04167C2.25 4.77084 2.29514 4.52709 2.38542 4.31042C2.4757 4.09376 2.59306 3.88612 2.7375 3.68751L4.25417 1.84584C4.39861 1.64723 4.57917 1.49809 4.79584 1.39842C5.0125 1.29876 5.24722 1.24929 5.5 1.25001H18.5C18.7528 1.25001 18.9875 1.29948 19.2042 1.39842C19.4208 1.49737 19.6014 1.64651 19.7458 1.84584L21.2625 3.68751C21.4069 3.88612 21.5243 4.09376 21.6146 4.31042C21.7049 4.52709 21.75 4.77084 21.75 5.04167V18.5833C21.75 19.1792 21.5377 19.6894 21.113 20.1141C20.6883 20.5388 20.1784 20.7507 19.5833 20.75H4.41667ZM4.85 4.50001H19.15L18.2292 3.41667H5.77084L4.85 4.50001ZM4.41667 6.66667V18.5833H19.5833V6.66667H4.41667ZM12 17.5L16.3333 13.1667L14.8167 11.65L13.0833 13.3833V8.83334H10.9167V13.3833L9.18334 11.65L7.66667 13.1667L12 17.5Z" fill="#F8373F"/>
</svg>
