<svg width="24" height="24" viewBox="0 0 24 24" fill="none" xmlns="http://www.w3.org/2000/svg">
<rect width="24" height="24" fill="white"/>
<path d="M10.1667 6H13.8334C13.8334 5.46957 13.6402 4.96086 13.2964 4.58579C12.9526 4.21071 12.4863 4 12 4C11.5138 4 11.0475 4.21071 10.7037 4.58579C10.3599 4.96086 10.1667 5.46957 10.1667 6V6ZM8.33337 6C8.33337 4.93913 8.71968 3.92172 9.40732 3.17157C10.0949 2.42143 11.0276 2 12 2C12.9725 2 13.9051 2.42143 14.5928 3.17157C15.2804 3.92172 15.6667 4.93913 15.6667 6H20.25C20.4932 6 20.7263 6.10536 20.8982 6.29289C21.0701 6.48043 21.1667 6.73478 21.1667 7C21.1667 7.26522 21.0701 7.51957 20.8982 7.70711C20.7263 7.89464 20.4932 8 20.25 8H19.4415L18.6294 18.34C18.5513 19.3385 18.1325 20.2686 17.4559 20.9463C16.7793 21.6241 15.8941 22.0001 14.9755 22H9.02454C8.10596 22.0001 7.22079 21.6241 6.54418 20.9463C5.86756 20.2686 5.44879 19.3385 5.37071 18.34L4.55854 8H3.75004C3.50693 8 3.27377 7.89464 3.10186 7.70711C2.92995 7.51957 2.83337 7.26522 2.83337 7C2.83337 6.73478 2.92995 6.48043 3.10186 6.29289C3.27377 6.10536 3.50693 6 3.75004 6H8.33337ZM14.75 12C14.75 11.7348 14.6535 11.4804 14.4816 11.2929C14.3096 11.1054 14.0765 11 13.8334 11C13.5903 11 13.3571 11.1054 13.1852 11.2929C13.0133 11.4804 12.9167 11.7348 12.9167 12V16C12.9167 16.2652 13.0133 16.5196 13.1852 16.7071C13.3571 16.8946 13.5903 17 13.8334 17C14.0765 17 14.3096 16.8946 14.4816 16.7071C14.6535 16.5196 14.75 16.2652 14.75 16V12ZM10.1667 11C10.4098 11 10.643 11.1054 10.8149 11.2929C10.9868 11.4804 11.0834 11.7348 11.0834 12V16C11.0834 16.2652 10.9868 16.5196 10.8149 16.7071C10.643 16.8946 10.4098 17 10.1667 17C9.92359 17 9.69043 16.8946 9.51853 16.7071C9.34662 16.5196 9.25004 16.2652 9.25004 16V12C9.25004 11.7348 9.34662 11.4804 9.51853 11.2929C9.69043 11.1054 9.92359 11 10.1667 11V11ZM7.19671 18.17C7.23576 18.6694 7.44528 19.1346 7.78378 19.4735C8.12228 19.8124 8.56509 20.0003 9.02454 20H14.9755C15.4347 19.9998 15.877 19.8117 16.2151 19.4728C16.5533 19.134 16.7625 18.6691 16.8015 18.17L17.6009 8H6.39921L7.19854 18.17H7.19671Z" fill="#FF0000"/>
</svg>
