<svg width="24" height="24" viewBox="0 0 24 24" fill="none" xmlns="http://www.w3.org/2000/svg">
<path d="M12.4484 17.5L13.9439 15.6875L11.9843 13.3125L10.4888 15.125V16H11.7265V17.5H12.4484ZM18.1211 6.25C17.9836 6.08333 17.8417 6.08854 17.6956 6.26562L13.1833 11.7344C13.0372 11.9115 13.0329 12.0833 13.1704 12.25C13.3079 12.4167 13.4497 12.4115 13.5959 12.2344L18.1082 6.76562C18.2543 6.58854 18.2586 6.41667 18.1211 6.25ZM19.1525 15.5312V18.5C19.1525 19.7396 18.7893 20.7995 18.0631 21.6797C17.3368 22.5599 16.4623 23 15.4395 23H4.713C3.69021 23 2.81568 22.5599 2.08941 21.6797C1.36314 20.7995 1 19.7396 1 18.5V5.5C1 4.26042 1.36314 3.20052 2.08941 2.32031C2.81568 1.4401 3.69021 1 4.713 1H15.4395C15.9809 1 16.4837 1.13021 16.9479 1.39062C17.0768 1.46354 17.1541 1.58333 17.1799 1.75C17.2057 1.92708 17.167 2.07812 17.0639 2.20312L16.4322 2.96875C16.3118 3.11458 16.1743 3.15625 16.0196 3.09375C15.8219 3.03125 15.6286 3 15.4395 3H4.713C4.14574 3 3.66013 3.24479 3.25617 3.73438C2.8522 4.22396 2.65022 4.8125 2.65022 5.5V18.5C2.65022 19.1875 2.8522 19.776 3.25617 20.2656C3.66013 20.7552 4.14574 21 4.713 21H15.4395C16.0067 21 16.4923 20.7552 16.8963 20.2656C17.3003 19.776 17.5022 19.1875 17.5022 18.5V16.5312C17.5022 16.3958 17.5409 16.2812 17.6183 16.1875L18.4434 15.1875C18.5723 15.0312 18.7227 14.9948 18.8946 15.0781C19.0665 15.1615 19.1525 15.3125 19.1525 15.5312ZM17.9148 4L21.6278 8.5L12.9641 19H9.25112V14.5L17.9148 4ZM23.639 6.0625L22.4529 7.5L18.7399 3L19.926 1.5625C20.1667 1.27083 20.4589 1.125 20.8027 1.125C21.1465 1.125 21.4387 1.27083 21.6794 1.5625L23.639 3.9375C23.8797 4.22917 24 4.58333 24 5C24 5.41667 23.8797 5.77083 23.639 6.0625Z" fill="#F8373F"/>
</svg>
