<svg width="20" height="20" viewBox="0 0 20 20" fill="none" xmlns="http://www.w3.org/2000/svg">
<path d="M1.8501 1.85002C1.74425 1.95584 1.6799 2.09614 1.66873 2.2454C1.65757 2.39465 1.70034 2.54296 1.78927 2.66335L1.8501 2.73335L5.21177 6.09585C3.57263 7.24471 2.40251 8.94589 1.91594 10.8875C1.87842 11.0474 1.9053 11.2155 1.99077 11.3557C2.07625 11.4959 2.21344 11.5968 2.37272 11.6367C2.53199 11.6765 2.70054 11.6521 2.84195 11.5687C2.98336 11.4852 3.08627 11.3495 3.12844 11.1909C3.56085 9.46752 4.62585 7.96998 6.11177 6.99585L6.86594 7.75002L7.6201 8.50419C7.0176 9.13376 6.68559 9.97425 6.69521 10.8456C6.70482 11.717 7.05528 12.55 7.67152 13.1661C8.28777 13.7822 9.12079 14.1325 9.99216 14.142C10.8635 14.1515 11.704 13.8193 12.3334 13.2167L17.2659 18.15C17.3775 18.2618 17.5272 18.3273 17.685 18.3332C17.8428 18.3392 17.997 18.2851 18.1166 18.182C18.2362 18.0789 18.3124 17.9343 18.3297 17.7773C18.347 17.6203 18.3043 17.4626 18.2101 17.3359L18.1493 17.2659L13.0551 12.1709L13.0559 12.1692L7.26427 6.38085L7.26594 6.37919L6.32177 5.43752L2.73344 1.85002C2.61625 1.73298 2.45739 1.66724 2.29177 1.66724C2.12614 1.66724 1.96729 1.73298 1.8501 1.85002ZM10.0001 4.58335C9.16677 4.58335 8.35844 4.70669 7.5926 4.93752L8.62344 5.96752C10.4064 5.61448 12.2568 5.96009 13.7922 6.93288C15.3275 7.90566 16.4303 9.43124 16.8726 11.1942C16.9158 11.3516 17.0188 11.4859 17.1598 11.5684C17.3007 11.6508 17.4682 11.6748 17.6266 11.6353C17.785 11.5958 17.9217 11.4959 18.0074 11.3569C18.093 11.2179 18.1209 11.051 18.0851 10.8917C17.6332 9.08957 16.5922 7.49007 15.1274 6.34716C13.6626 5.20426 11.858 4.58347 10.0001 4.58335ZM10.1626 7.50835L13.3301 10.675C13.2891 9.84827 12.9422 9.06628 12.3568 8.48104C11.7714 7.8958 10.9894 7.54911 10.1626 7.50835Z" fill="black"/>
</svg>
