<svg width="24" height="24" viewBox="0 0 24 24" fill="none" xmlns="http://www.w3.org/2000/svg">
<mask id="mask0_413_2030" style="mask-type:alpha" maskUnits="userSpaceOnUse" x="0" y="0" width="24" height="24">
<rect width="24" height="24" fill="#D9D9D9"/>
</mask>
<g mask="url(#mask0_413_2030)">
<path d="M14.7001 6.7C14.8834 6.88334 14.9751 7.11667 14.9751 7.4C14.9751 7.68334 14.8834 7.91667 14.7001 8.1L10.8001 12L14.7001 15.9C14.8834 16.0833 14.9751 16.3167 14.9751 16.6C14.9751 16.8833 14.8834 17.1167 14.7001 17.3C14.5168 17.4833 14.2834 17.575 14.0001 17.575C13.7168 17.575 13.4834 17.4833 13.3001 17.3L8.7001 12.7C8.6001 12.6 8.52926 12.4917 8.4876 12.375C8.44593 12.2583 8.4251 12.1333 8.4251 12C8.4251 11.8667 8.44593 11.7417 8.4876 11.625C8.52926 11.5083 8.6001 11.4 8.7001 11.3L13.3001 6.7C13.4834 6.51667 13.7168 6.425 14.0001 6.425C14.2834 6.425 14.5168 6.51667 14.7001 6.7Z" fill="#1C1B1F"/>
</g>
</svg>
