<svg width="24" height="24" viewBox="0 0 24 24" fill="none" xmlns="http://www.w3.org/2000/svg">
<mask id="mask0_413_2030" style="mask-type:alpha" maskUnits="userSpaceOnUse" x="0" y="0" width="24" height="24">
<rect width="24" height="24" fill="#D9D9D9"/>
</mask>
<g mask="url(#mask0_413_2030)">
<path d="M6.275 17.3C6.09167 17.1167 6 16.8833 6 16.6C6 16.3167 6.09167 16.0833 6.275 15.9L10.175 12L6.275 8.1C6.09167 7.91667 6 7.68334 6 7.4C6 7.11667 6.09167 6.88334 6.275 6.7C6.45833 6.51667 6.69167 6.425 6.975 6.425C7.25833 6.425 7.49167 6.51667 7.675 6.7L12.275 11.3C12.375 11.4 12.4458 11.5083 12.4875 11.625C12.5292 11.7417 12.55 11.8667 12.55 12C12.55 12.1333 12.5292 12.2583 12.4875 12.375C12.4458 12.4917 12.375 12.6 12.275 12.7L7.675 17.3C7.49167 17.4833 7.25833 17.575 6.975 17.575C6.69167 17.575 6.45833 17.4833 6.275 17.3Z" fill="#1C1B1F"/>
<path d="M11.275 17.3C11.0917 17.1167 11 16.8833 11 16.6C11 16.3167 11.0917 16.0833 11.275 15.9L15.175 12L11.275 8.1C11.0917 7.91667 11 7.68334 11 7.4C11 7.11667 11.0917 6.88334 11.275 6.7C11.4583 6.51667 11.6917 6.425 11.975 6.425C12.2583 6.425 12.4917 6.51667 12.675 6.7L17.275 11.3C17.375 11.4 17.4458 11.5083 17.4875 11.625C17.5292 11.7417 17.55 11.8667 17.55 12C17.55 12.1333 17.5292 12.2583 17.4875 12.375C17.4458 12.4917 17.375 12.6 17.275 12.7L12.675 17.3C12.4917 17.4833 12.2583 17.575 11.975 17.575C11.6917 17.575 11.4583 17.4833 11.275 17.3Z" fill="#1C1B1F"/>
</g>
</svg>
