<svg width="24" height="24" viewBox="0 0 24 24" fill="none" xmlns="http://www.w3.org/2000/svg">
<path d="M22.2712 11.7875C21.4626 9.88603 20.0588 8.24164 18.2334 7.05755C16.4079 5.87347 14.2408 5.20161 12 5.125C9.75906 5.20161 7.59197 5.87347 5.76653 7.05755C3.94109 8.24164 2.53731 9.88603 1.7287 11.7875C1.67409 11.9248 1.67409 12.0752 1.7287 12.2125C2.53731 14.114 3.94109 15.7584 5.76653 16.9424C7.59197 18.1265 9.75906 18.7984 12 18.875C14.2408 18.7984 16.4079 18.1265 18.2334 16.9424C20.0588 15.7584 21.4626 14.114 22.2712 12.2125C22.3258 12.0752 22.3258 11.9248 22.2712 11.7875V11.7875ZM12 17.625C8.3562 17.625 4.5062 15.1688 3.11058 12C4.5062 8.83125 8.3562 6.375 12 6.375C15.6437 6.375 19.4937 8.83125 20.8893 12C19.4937 15.1688 15.6437 17.625 12 17.625Z" fill="#F8373F"/>
<path d="M12 8.25C11.1842 8.25 10.3866 8.46993 9.70827 8.88199C9.02992 9.29404 8.50121 9.87971 8.189 10.5649C7.87679 11.2502 7.7951 12.0042 7.95426 12.7316C8.11343 13.459 8.50629 14.1272 9.08319 14.6517C9.66008 15.1761 10.3951 15.5333 11.1953 15.6779C11.9954 15.8226 12.8248 15.7484 13.5786 15.4645C14.3323 15.1807 14.9766 14.7001 15.4298 14.0834C15.8831 13.4667 16.125 12.7417 16.125 12C16.125 11.0054 15.6904 10.0516 14.9168 9.34835C14.1432 8.64509 13.094 8.25 12 8.25ZM12.3929 10.2143C11.849 10.2143 11.0165 13.2314 10.5642 12.9567C10.112 12.682 14.5653 12.4568 14.3571 12C14.149 11.5432 10.7153 12.485 10.8214 12C10.9275 11.515 12.0083 11.6353 12.3929 11.2857C12.7775 10.9361 9.89512 11.025 10.4286 10.9286C10.962 10.8321 9.47898 13.5086 9.98148 13.6978C10.484 13.8871 11.6978 12.6603 12 13.0714C12.3022 13.4826 10.8214 11.1484 10.8214 11.6429C10.8214 12.3059 13.6943 11.8883 13.1786 12.3571C12.6628 12.826 13.1222 10.2143 12.3929 10.2143Z" fill="#F8373F"/>
</svg>
